<?xml version="1.0" encoding="UTF-8"?>
<svg xmlns="http://www.w3.org/2000/svg" xmlns:xlink="http://www.w3.org/1999/xlink" width="90pt" height="64pt" viewBox="0 0 90 64" version="1.1">
<g id="surface1">
<path style=" stroke:none;fill-rule:nonzero;fill:rgb(0%,0%,0%);fill-opacity:1;" d="M 42.601562 5.300781 C 41.148438 5.949219 42.800781 6.5 46.148438 6.5 C 50.550781 6.5 52.5 7 56 9.101562 C 59.148438 11 62.148438 14.699219 63.300781 18.101562 C 63.75 19.550781 64.398438 20.5 64.800781 20.5 C 65.75 20.5 65.449219 19.351562 63.449219 15.199219 C 61.699219 11.5 58.5 8.398438 54.601562 6.601562 C 52.351562 5.550781 50.898438 5.25 47.5 5.148438 C 45.148438 5.101562 42.949219 5.148438 42.601562 5.300781 Z M 42.601562 5.300781 "/>
<path style=" stroke:none;fill-rule:nonzero;fill:rgb(0%,0%,0%);fill-opacity:1;" d="M 27.898438 7.949219 C 25.449219 10.800781 23.550781 15 22.648438 19.449219 C 21.25 26.050781 22.949219 33.148438 27.300781 39.050781 C 28.300781 40.398438 29.398438 41.5 29.800781 41.5 C 30.898438 41.5 30.601562 40.5 28.949219 38.601562 C 26.75 36.101562 24.550781 31.148438 23.898438 27.300781 C 22.898438 21.300781 24.75 14.5 28.699219 9.300781 C 31.101562 6.199219 30.398438 5.050781 27.898438 7.949219 Z M 27.898438 7.949219 "/>
<path style=" stroke:none;fill-rule:nonzero;fill:rgb(0%,0%,0%);fill-opacity:1;" d="M 63 6.550781 C 63 6.851562 63.699219 7.898438 64.5 8.851562 C 68.148438 13 70.300781 19.601562 69.851562 25.5 C 69.550781 30.199219 68.050781 34.101562 65.199219 38.050781 C 63 41 62.699219 42.25 64.398438 41.199219 C 65.851562 40.300781 68.949219 35.351562 70 32.25 C 72.898438 24.050781 71.101562 14 65.648438 8 C 63.851562 6 63 5.5 63 6.550781 Z M 63 6.550781 "/>
<path style=" stroke:none;fill-rule:nonzero;fill:rgb(0%,0%,0%);fill-opacity:1;" d="M 42.851562 12.300781 C 39.351562 13.398438 36.300781 16.648438 35.199219 20.300781 C 33.800781 25.148438 35.101562 29.699219 38.800781 33 C 41.351562 35.199219 43.449219 36 46.851562 36 C 56.949219 35.949219 62.550781 24.5 56.351562 16.398438 C 53.300781 12.449219 47.699219 10.75 42.851562 12.300781 Z M 52.449219 14.851562 C 55.300781 16.601562 57.5 20.550781 57.5 23.851562 C 57.5 29.75 52.75 34.5 46.898438 34.5 C 38.351562 34.449219 33.199219 25.25 37.800781 18.148438 C 41.101562 13.101562 47.300781 11.699219 52.449219 14.851562 Z M 52.449219 14.851562 "/>
<path style=" stroke:none;fill-rule:nonzero;fill:rgb(0%,0%,0%);fill-opacity:1;" d="M 47.800781 16.351562 C 48.601562 18.148438 48.148438 20.148438 46.800781 21.351562 C 46.050781 22 45.148438 22.5 44.75 22.5 C 43.101562 22.5 41.398438 21.398438 40.800781 19.898438 L 40.101562 18.300781 L 39.300781 19.898438 C 38.851562 20.75 38.5 22.550781 38.5 23.851562 C 38.5 31.550781 47.351562 35.25 52.800781 29.800781 C 55.75 26.851562 56.101562 22.601562 53.75 18.949219 C 52.101562 16.351562 46.75 14.050781 47.800781 16.351562 Z M 48.5 25.25 C 48.5 25.648438 48.199219 26 47.898438 26.148438 C 46.851562 26.5 46 25.949219 46 25 C 46 24.5 46.300781 24 46.648438 23.851562 C 47.398438 23.601562 48.5 24.398438 48.5 25.25 Z M 48.5 25.25 "/>
<path style=" stroke:none;fill-rule:nonzero;fill:rgb(0%,0%,0%);fill-opacity:1;" d="M 28.5 28.101562 C 28.5 30.300781 31.300781 35.199219 33.949219 37.648438 C 37.300781 40.800781 41.050781 42.5 45.351562 42.851562 C 48.550781 43.101562 52.050781 42.398438 51.300781 41.648438 C 51.148438 41.5 49.148438 41.300781 46.851562 41.300781 C 43.25 41.25 42.300781 41.050781 39.398438 39.601562 C 34.398438 37.148438 31.351562 33.398438 29.699219 27.601562 C 29.398438 26.550781 28.5 26.949219 28.5 28.101562 Z M 28.5 28.101562 "/>
<path style=" stroke:none;fill-rule:nonzero;fill:rgb(0%,0%,0%);fill-opacity:1;" d="M 6.351562 49.351562 C 5.550781 50.101562 6.148438 50.5 8 50.5 L 10.050781 50.5 L 9.898438 53.601562 C 9.800781 56.148438 9.601562 56.75 8.851562 56.898438 C 8.351562 57 7.5 56.699219 7 56.25 C 5.699219 55.101562 5.199219 56.199219 6.5 57.5 C 7.699219 58.699219 8.398438 58.75 9.898438 57.699219 C 10.851562 57.050781 11 56.5 11 53.800781 C 11 51 11.101562 50.601562 12.050781 50.351562 C 12.648438 50.199219 12.949219 49.851562 12.75 49.550781 C 12.398438 48.949219 6.898438 48.800781 6.351562 49.351562 Z M 6.351562 49.351562 "/>
<path style=" stroke:none;fill-rule:nonzero;fill:rgb(0%,0%,0%);fill-opacity:1;" d="M 29.351562 49.351562 C 29.101562 49.699219 29.101562 50.199219 29.25 50.5 C 29.398438 50.75 29.199219 51 28.800781 51 C 28.351562 51 28 51.199219 28 51.5 C 28 51.75 28.300781 52 28.648438 52 C 29.101562 52 29.199219 52.601562 29.101562 53.949219 C 28.898438 56.101562 29.648438 58 30.75 58 C 31.148438 58 31.5 57.75 31.5 57.5 C 31.5 57.199219 31.199219 57.050781 30.898438 57.101562 C 30.449219 57.199219 30.199219 56.398438 30.101562 54.601562 C 29.949219 52.25 30.050781 52 30.949219 52 C 31.550781 52 32 51.75 32 51.5 C 32 51.199219 31.550781 51 31.050781 51 C 30.398438 51 30 50.601562 29.898438 49.851562 C 29.800781 49.101562 29.648438 48.949219 29.351562 49.351562 Z M 29.351562 49.351562 "/>
<path style=" stroke:none;fill-rule:nonzero;fill:rgb(0%,0%,0%);fill-opacity:1;" d="M 42.25 49.75 C 42 50.300781 41.601562 50.949219 41.300781 51.148438 C 40.898438 51.449219 40.949219 51.648438 41.398438 51.851562 C 41.75 52 42 53 42 54.449219 C 42 55.75 42.25 57.050781 42.601562 57.398438 C 43.351562 58.148438 44.5 58.199219 44.5 57.5 C 44.5 57.199219 44.199219 57.050781 43.898438 57.101562 C 43.449219 57.199219 43.199219 56.398438 43.101562 54.601562 C 43 52.5 43.101562 52 43.699219 52 C 44.148438 52 44.5 51.75 44.5 51.5 C 44.5 51.199219 44.199219 51 43.800781 51 C 43.398438 51 43 50.5 42.851562 49.851562 C 42.699219 48.800781 42.648438 48.800781 42.25 49.75 Z M 42.25 49.75 "/>
<path style=" stroke:none;fill-rule:nonzero;fill:rgb(0%,0%,0%);fill-opacity:1;" d="M 77.75 49.5 C 77.601562 49.800781 77.800781 50.148438 78.199219 50.300781 C 78.800781 50.550781 79 51.351562 79 53.5 C 79 55.648438 78.800781 56.449219 78.199219 56.699219 C 76.949219 57.199219 77.898438 58 79.75 58 C 81.601562 58 82.550781 57.199219 81.300781 56.699219 C 80.148438 56.25 80.148438 50.75 81.300781 50.300781 C 82.550781 49.800781 81.601562 49 79.75 49 C 78.800781 49 77.898438 49.25 77.75 49.5 Z M 77.75 49.5 "/>
<path style=" stroke:none;fill-rule:nonzero;fill:rgb(0%,0%,0%);fill-opacity:1;" d="M 84.75 49.75 C 84.5 50.300781 84.101562 50.949219 83.800781 51.148438 C 83.398438 51.449219 83.449219 51.648438 83.898438 51.851562 C 84.25 52 84.5 53 84.5 54.25 C 84.5 55.449219 84.648438 56.75 84.800781 57.199219 C 85.148438 58.050781 87 58.300781 87 57.5 C 87 57.199219 86.699219 57.050781 86.398438 57.101562 C 85.949219 57.199219 85.699219 56.398438 85.601562 54.601562 C 85.5 52.5 85.601562 52 86.199219 52 C 86.648438 52 87 51.75 87 51.5 C 87 51.199219 86.699219 51 86.300781 51 C 85.898438 51 85.5 50.5 85.351562 49.851562 C 85.199219 48.800781 85.148438 48.800781 84.75 49.75 Z M 84.75 49.75 "/>
<path style=" stroke:none;fill-rule:nonzero;fill:rgb(0%,0%,0%);fill-opacity:1;" d="M 34.300781 50.449219 C 32.949219 51.898438 33.699219 53.398438 36 54 C 38.199219 54.601562 38.648438 55.050781 38.199219 56.199219 C 37.851562 57.101562 36.398438 57.25 34.898438 56.449219 C 33.601562 55.75 33.101562 56.300781 34.101562 57.300781 C 35.050781 58.25 37.699219 58.351562 38.75 57.5 C 40.449219 56.101562 38.851562 53 36.449219 53 C 36 53 35.351562 52.699219 35.050781 52.300781 C 34.25 51.351562 35.550781 50.351562 37.300781 50.601562 C 38.101562 50.699219 38.75 50.5 38.851562 50.101562 C 39.25 49.050781 35.300781 49.351562 34.300781 50.449219 Z M 34.300781 50.449219 "/>
<path style=" stroke:none;fill-rule:nonzero;fill:rgb(0%,0%,0%);fill-opacity:1;" d="M 14 53.550781 C 14 56.851562 14.648438 58 16.5 58 C 17.300781 58 18.101562 57.75 18.300781 57.449219 C 18.5 57.050781 18.75 57.101562 19.050781 57.550781 C 19.300781 58 19.449219 56.75 19.398438 54.5 C 19.351562 51.5 19.300781 51.25 19.148438 53.300781 C 19 55.101562 18.648438 56.148438 17.949219 56.800781 C 16.300781 58.300781 15.300781 57.199219 15.101562 53.800781 C 14.898438 50.300781 14 50.050781 14 53.550781 Z M 14 53.550781 "/>
<path style=" stroke:none;fill-rule:nonzero;fill:rgb(0%,0%,0%);fill-opacity:1;" d="M 21.949219 51.800781 C 21.050781 52.898438 21.851562 54.050781 24.050781 54.75 C 26.199219 55.5 26.550781 56.851562 24.75 57.300781 C 23.851562 57.5 23.148438 57.351562 22.5 56.75 C 21.300781 55.648438 20.648438 56.050781 21.75 57.199219 C 23 58.398438 25.851562 58.25 26.550781 56.898438 C 27.050781 56 26.949219 55.699219 26 54.898438 C 25.398438 54.398438 24.5 54 24 54 C 22.699219 54 21.851562 52.851562 22.601562 52.101562 C 23.398438 51.300781 24.300781 51.351562 25.25 52.300781 C 26.25 53.300781 26.898438 52.851562 26 51.75 C 25.199219 50.75 22.800781 50.800781 21.949219 51.800781 Z M 21.949219 51.800781 "/>
<path style=" stroke:none;fill-rule:nonzero;fill:rgb(0%,0%,0%);fill-opacity:1;" d="M 46.601562 54.5 C 46.648438 57.949219 46.648438 58.050781 46.949219 55.75 C 47.351562 52.75 47.75 52 49.050781 52 C 49.550781 52 50 51.75 50 51.5 C 50 50.800781 48.148438 50.851562 47.699219 51.550781 C 47.5 51.949219 47.25 51.898438 46.949219 51.449219 C 46.699219 51 46.550781 52.25 46.601562 54.5 Z M 46.601562 54.5 "/>
<path style=" stroke:none;fill-rule:nonzero;fill:rgb(0%,0%,0%);fill-opacity:1;" d="M 51.800781 52.101562 C 50 54.648438 51.351562 58 54.148438 58 C 55.449219 58 57 56.851562 57 55.851562 C 57 55.550781 56.550781 55.800781 56 56.398438 C 54.851562 57.601562 53.5 57.800781 52.601562 56.898438 C 51.300781 55.601562 51.949219 55 54.5 55 C 56.800781 55 57 54.898438 57 53.851562 C 57 51.199219 53.25 50 51.800781 52.101562 Z M 55.601562 52.351562 C 57 53.601562 56.699219 54 54.25 54 C 51.851562 54 51.148438 53.050781 52.898438 52.050781 C 54.101562 51.351562 54.550781 51.398438 55.601562 52.351562 Z M 55.601562 52.351562 "/>
<path style=" stroke:none;fill-rule:nonzero;fill:rgb(0%,0%,0%);fill-opacity:1;" d="M 59.601562 51.601562 C 58.5 52.699219 58.949219 52.949219 60.449219 52.101562 C 61.648438 51.398438 62 51.398438 62.699219 51.949219 C 64.050781 53.101562 63.648438 54 61.800781 54 C 60.050781 54 58.5 55.050781 58.5 56.199219 C 58.5 57.800781 61.601562 58.699219 62.898438 57.398438 C 63.351562 56.949219 63.5 56.949219 63.5 57.398438 C 63.5 57.75 63.75 58 64 58 C 64.851562 58 64.601562 52.648438 63.699219 51.800781 C 62.800781 50.851562 60.449219 50.75 59.601562 51.601562 Z M 63.5 55.5 C 63.5 57.199219 60.25 58.25 59.699219 56.75 C 59.25 55.601562 60.449219 54.5 62.050781 54.5 C 63.148438 54.5 63.5 54.75 63.5 55.5 Z M 63.5 55.5 "/>
<path style=" stroke:none;fill-rule:nonzero;fill:rgb(0%,0%,0%);fill-opacity:1;" d="M 66.601562 54.5 L 66.648438 58.25 L 67 55.25 C 67.199219 53.601562 67.148438 51.898438 66.949219 51.5 C 66.699219 51.050781 66.550781 52.351562 66.601562 54.5 Z M 66.601562 54.5 "/>
<path style=" stroke:none;fill-rule:nonzero;fill:rgb(0%,0%,0%);fill-opacity:1;" d="M 67.699219 51.601562 C 67.449219 52 67.601562 52.050781 68.148438 51.851562 C 69.898438 51.199219 70.5 51.949219 70.5 55.050781 C 70.5 56.699219 70.699219 58 71 58 C 71.300781 58 71.5 56.800781 71.5 55.300781 C 71.5 53.449219 71.75 52.398438 72.300781 51.949219 C 73.699219 50.800781 74.699219 52 75.050781 55.300781 L 75.351562 58.25 L 75.398438 55.25 C 75.449219 53.449219 75.25 51.949219 74.898438 51.601562 C 74.148438 50.851562 72.398438 50.800781 71.648438 51.550781 C 71.25 51.949219 71 51.949219 70.800781 51.550781 C 70.351562 50.800781 68.148438 50.851562 67.699219 51.601562 Z M 67.699219 51.601562 "/>
</g>
</svg>
