<?xml version="1.0" standalone="no"?>
<!DOCTYPE svg PUBLIC "-//W3C//DTD SVG 20010904//EN"
 "http://www.w3.org/TR/2001/REC-SVG-20010904/DTD/svg10.dtd">
<svg version="1.0" xmlns="http://www.w3.org/2000/svg"
 width="180.000000pt" height="128.000000pt" viewBox="0 0 180.000000 128.000000"
 preserveAspectRatio="xMidYMid meet">

<g transform="translate(0.000000,128.000000) scale(0.100000,-0.100000)"
fill="#000000" stroke="none">
<path d="M852 1174 c-29 -13 4 -24 71 -24 88 0 127 -10 197 -52 63 -38 123
-112 146 -180 9 -29 22 -48 30 -48 19 0 13 23 -27 106 -35 74 -99 136 -177
172 -45 21 -74 27 -142 29 -47 1 -91 0 -98 -3z"/>
<path d="M558 1121 c-49 -57 -87 -141 -105 -230 -28 -132 6 -274 93 -392 20
-27 42 -49 50 -49 22 0 16 20 -17 58 -44 50 -88 149 -101 226 -20 120 17 256
96 360 48 62 34 85 -16 27z"/>
<path d="M1260 1149 c0 -6 14 -27 30 -46 73 -83 116 -215 107 -333 -6 -94 -36
-172 -93 -251 -44 -59 -50 -84 -16 -63 29 18 91 117 112 179 58 164 22 365
-87 485 -36 40 -53 50 -53 29z"/>
<path d="M857 1034 c-70 -22 -131 -87 -153 -160 -28 -97 -2 -188 72 -254 51
-44 93 -60 161 -60 202 1 314 230 190 392 -61 79 -173 113 -270 82z m192 -51
c57 -35 101 -114 101 -180 0 -118 -95 -213 -212 -213 -171 1 -274 185 -182
327 66 101 190 129 293 66z"/>
<path d="M956 953 c16 -36 7 -76 -20 -100 -15 -13 -33 -23 -41 -23 -33 0 -67
22 -79 52 l-14 32 -16 -32 c-9 -17 -16 -53 -16 -79 0 -154 177 -228 286 -119
59 59 66 144 19 217 -33 52 -140 98 -119 52z m14 -178 c0 -8 -6 -15 -12 -18
-21 -7 -38 4 -38 23 0 10 6 20 13 23 15 5 37 -11 37 -28z"/>
<path d="M570 718 c0 -44 56 -142 109 -191 67 -63 142 -97 228 -104 64 -5 134
9 119 24 -3 3 -43 7 -89 7 -72 1 -91 5 -149 34 -100 49 -161 124 -194 240 -6
21 -24 13 -24 -10z"/>
<path d="M127 293 c-16 -15 -4 -23 33 -23 l41 0 -3 -62 c-2 -51 -6 -63 -21
-66 -10 -2 -27 4 -37 13 -26 23 -36 1 -10 -25 24 -24 38 -25 68 -4 19 13 22
24 22 78 0 56 2 64 21 69 12 3 18 10 14 16 -7 12 -117 15 -128 4z"/>
<path d="M587 293 c-5 -7 -5 -17 -2 -23 3 -5 -1 -10 -9 -10 -9 0 -16 -4 -16
-10 0 -5 6 -10 13 -10 9 0 11 -12 9 -39 -4 -43 11 -81 33 -81 8 0 15 5 15 10
0 6 -6 9 -12 8 -9 -2 -14 14 -16 50 -3 47 -1 52 17 52 12 0 21 5 21 10 0 6 -9
10 -19 10 -13 0 -21 8 -23 23 -2 15 -5 18 -11 10z"/>
<path d="M845 285 c-5 -11 -13 -24 -19 -28 -8 -6 -7 -10 2 -14 7 -3 12 -23 12
-52 0 -26 5 -52 12 -59 15 -15 38 -16 38 -2 0 6 -6 9 -12 8 -9 -2 -14 14 -16
50 -2 42 0 52 12 52 9 0 16 5 16 10 0 6 -6 10 -14 10 -8 0 -16 10 -19 23 -3
21 -4 21 -12 2z"/>
<path d="M1555 290 c-3 -6 1 -13 9 -16 12 -5 16 -21 16 -64 0 -43 -4 -59 -16
-64 -25 -10 -6 -26 31 -26 37 0 56 16 31 26 -23 9 -23 119 0 128 25 10 6 26
-31 26 -19 0 -37 -5 -40 -10z"/>
<path d="M1695 285 c-5 -11 -13 -24 -19 -28 -8 -6 -7 -10 2 -14 7 -3 12 -23
12 -48 0 -24 3 -50 6 -59 7 -17 44 -22 44 -6 0 6 -6 9 -12 8 -9 -2 -14 14 -16
50 -2 42 0 52 12 52 9 0 16 5 16 10 0 6 -6 10 -14 10 -8 0 -16 10 -19 23 -3
21 -4 21 -12 2z"/>
<path d="M686 271 c-27 -29 -12 -59 34 -71 44 -12 53 -21 44 -44 -7 -18 -36
-21 -66 -5 -26 14 -36 3 -16 -17 19 -19 72 -21 93 -4 34 28 2 90 -46 90 -9 0
-22 6 -28 14 -16 19 10 39 45 34 16 -2 29 2 31 10 8 21 -71 15 -91 -7z"/>
<path d="M280 209 c0 -66 13 -89 50 -89 16 0 32 5 36 11 4 8 9 7 15 -2 5 -9 8
16 7 61 -1 60 -2 65 -5 24 -3 -36 -10 -57 -24 -70 -33 -30 -53 -8 -57 60 -4
70 -22 75 -22 5z"/>
<path d="M439 244 c-18 -22 -2 -45 42 -59 43 -15 50 -42 14 -51 -18 -4 -32 -1
-45 11 -24 22 -37 14 -15 -9 25 -24 82 -21 96 6 10 18 8 24 -11 40 -12 10 -30
18 -40 18 -26 0 -43 23 -28 38 16 16 34 15 53 -4 20 -20 33 -11 15 11 -16 20
-64 19 -81 -1z"/>
<path d="M932 190 c1 -69 1 -71 7 -25 8 60 16 75 42 75 10 0 19 5 19 10 0 14
-37 13 -46 -1 -4 -8 -9 -7 -15 2 -5 9 -8 -16 -7 -61z"/>
<path d="M1036 238 c-36 -51 -9 -118 47 -118 26 0 57 23 57 43 0 6 -9 1 -20
-11 -23 -24 -50 -28 -68 -10 -26 26 -13 38 38 38 46 0 50 2 50 23 0 53 -75 77
-104 35z m76 -5 c28 -25 22 -33 -27 -33 -48 0 -62 19 -27 39 24 14 33 13 54
-6z"/>
<path d="M1192 248 c-22 -22 -13 -27 17 -10 24 14 31 14 45 3 27 -23 19 -41
-18 -41 -35 0 -66 -21 -66 -44 0 -32 62 -50 88 -24 9 9 12 9 12 0 0 -7 5 -12
10 -12 17 0 12 107 -6 124 -18 19 -65 21 -82 4z m78 -78 c0 -34 -65 -55 -76
-25 -9 23 15 45 47 45 22 0 29 -5 29 -20z"/>
<path d="M1332 190 l1 -75 7 60 c4 33 3 67 -1 75 -5 9 -8 -17 -7 -60z"/>
<path d="M1354 248 c-5 -8 -2 -9 9 -5 35 13 47 -2 47 -64 0 -33 4 -59 10 -59
6 0 10 24 10 54 0 37 5 58 16 67 28 23 48 -1 55 -67 l6 -59 1 60 c1 36 -3 66
-10 73 -15 15 -50 16 -65 1 -8 -8 -13 -8 -17 0 -9 15 -53 14 -62 -1z"/>
</g>
</svg>
